<?xml version="1.0" encoding="UTF-8" standalone="no"?>
<!-- Created with Inkscape (http://www.inkscape.org/) -->

<svg
   width="450"
   height="100"
   viewBox="0 0 119.06251 26.458337"
   version="1.1"
   id="svg5"
   xml:space="preserve"
   inkscape:version="1.2.1 (9c6d41e410, 2022-07-14)"
   sodipodi:docname="wikiedia.svg"
   xmlns:inkscape="http://www.inkscape.org/namespaces/inkscape"
   xmlns:sodipodi="http://sodipodi.sourceforge.net/DTD/sodipodi-0.dtd"
   xmlns:xlink="http://www.w3.org/1999/xlink"
   xmlns="http://www.w3.org/2000/svg"
   xmlns:svg="http://www.w3.org/2000/svg"><sodipodi:namedview
     id="namedview7"
     pagecolor="#ffffff"
     bordercolor="#111111"
     borderopacity="1"
     inkscape:showpageshadow="0"
     inkscape:pageopacity="0"
     inkscape:pagecheckerboard="1"
     inkscape:deskcolor="#d1d1d1"
     inkscape:document-units="in"
     showgrid="true"
     inkscape:zoom="1.3932941"
     inkscape:cx="207.78097"
     inkscape:cy="172.61252"
     inkscape:window-width="1920"
     inkscape:window-height="1001"
     inkscape:window-x="-9"
     inkscape:window-y="-9"
     inkscape:window-maximized="1"
     inkscape:current-layer="text916"><inkscape:grid
       type="xygrid"
       id="grid4538"
       originx="0"
       originy="0" /></sodipodi:namedview><defs
     id="defs2"><linearGradient
       id="linearGradient5422"
       inkscape:swatch="solid"><stop
         style="stop-color:#9ade00;stop-opacity:1;"
         offset="0"
         id="stop5420" /></linearGradient><linearGradient
       id="linearGradient4364"
       inkscape:swatch="solid"><stop
         style="stop-color:#000000;stop-opacity:1;"
         offset="0"
         id="stop4362" /></linearGradient><linearGradient
       id="linearGradient4358"
       inkscape:swatch="solid"><stop
         style="stop-color:#460ad2;stop-opacity:1;"
         offset="0"
         id="stop4356" /></linearGradient><linearGradient
       id="linearGradient4352"
       inkscape:swatch="solid"><stop
         style="stop-color:#460ad2;stop-opacity:1;"
         offset="0"
         id="stop4350" /></linearGradient><linearGradient
       inkscape:collect="always"
       xlink:href="#linearGradient4358"
       id="linearGradient4366"
       x1="4.7580156"
       y1="34.885948"
       x2="118.40565"
       y2="34.885948"
       gradientUnits="userSpaceOnUse" /><linearGradient
       inkscape:collect="always"
       xlink:href="#linearGradient4352"
       id="linearGradient5424"
       x1="127.99126"
       y1="15.334377"
       x2="197.30383"
       y2="15.334377"
       gradientUnits="userSpaceOnUse"
       gradientTransform="matrix(0.0626405,0,0,0.0626405,75.132174,4.7839201)" /><linearGradient
       inkscape:collect="always"
       xlink:href="#linearGradient4364"
       id="linearGradient5547"
       x1="106.5321"
       y1="38.178772"
       x2="118.7947"
       y2="38.178772"
       gradientUnits="userSpaceOnUse"
       gradientTransform="translate(-3.699682,-21.656781)" /><linearGradient
       inkscape:collect="always"
       xlink:href="#linearGradient4358"
       id="linearGradient6815"
       gradientUnits="userSpaceOnUse"
       x1="4.7580156"
       y1="34.885948"
       x2="118.40565"
       y2="34.885948"
       gradientTransform="translate(-3.699682,-21.656781)" /><linearGradient
       inkscape:collect="always"
       xlink:href="#linearGradient4358"
       id="linearGradient6817"
       gradientUnits="userSpaceOnUse"
       x1="4.7580156"
       y1="34.885948"
       x2="118.40565"
       y2="34.885948"
       gradientTransform="translate(-3.699682,-21.656781)" /><linearGradient
       inkscape:collect="always"
       xlink:href="#linearGradient4358"
       id="linearGradient6819"
       gradientUnits="userSpaceOnUse"
       x1="4.7580156"
       y1="34.885948"
       x2="118.40565"
       y2="34.885948"
       gradientTransform="translate(-3.699682,-21.656781)" /><linearGradient
       inkscape:collect="always"
       xlink:href="#linearGradient4358"
       id="linearGradient6821"
       gradientUnits="userSpaceOnUse"
       x1="4.7580156"
       y1="34.885948"
       x2="118.40565"
       y2="34.885948"
       gradientTransform="translate(-3.699682,-21.656781)" /></defs><g
     inkscape:label="Layer 1"
     inkscape:groupmode="layer"
     id="layer1"><g
       aria-label="Wikiediea"
       id="text916"
       style="font-size:25.4px;font-family:Georgia;-inkscape-font-specification:Georgia;text-align:center;letter-spacing:0.15875px;text-anchor:middle;fill:url(#linearGradient4366);stroke:#0000f0;stroke-width:0.777999;stroke-linecap:round;stroke-linejoin:round;paint-order:markers fill stroke"><path
         d="m 26.259896,5.9365891 q -0.310059,0.0124 -0.719336,0.148828 -0.409278,0.124024 -0.756543,0.334864 -0.434082,0.272851 -0.706934,0.632519 -0.260449,0.347266 -0.458887,0.979785 -0.880566,2.8649419 -2.046386,6.6972659 -1.165821,3.819922 -2.517676,8.14834 H 17.913118 L 13.473079,9.3348311 8.8470046,22.878191 H 7.755599 Q 6.527767,18.53737 5.2131185,13.874089 3.8984701,9.1984061 3.4519857,7.6109061 3.3403646,7.2264331 3.1171224,6.9287771 2.9062826,6.6311211 2.5342123,6.3830741 2.2241537,6.1722341 1.802474,6.0730151 1.3931968,5.9613941 1.0583335,5.9365891 V 5.0560231 H 8.23929 v 0.880566 q -0.942578,0.04961 -1.612304,0.186035 -0.6573246,0.136426 -0.6573246,0.458887 0,0.124024 0.037207,0.334863 0.037207,0.198438 0.062012,0.322461 0.2852536,1.091407 1.0045896,3.6090819 0.731738,2.505274 2.1580076,7.515821 L 13.621907,5.3040701 h 1.21543 l 4.427637,13.3449209 q 0.892968,-3.075781 1.53789,-5.370214 0.644922,-2.306836 1.066602,-3.9439459 0.297656,-1.153418 0.37207,-1.575097 0.07441,-0.434082 0.07441,-0.731738 0,-0.42168 -0.58291,-0.706934 -0.570508,-0.285254 -1.860351,-0.384473 v -0.880566 h 6.387207 z"
         style="fill:#000000;stroke:none;stroke-width:0.778;stroke-dasharray:none"
         id="path5528" /><path
         d="m 32.880267,22.654948 h -5.915918 v -0.818554 q 0.285254,-0.02481 0.58291,-0.04961 0.310059,-0.0248 0.533301,-0.09922 0.347266,-0.111621 0.508496,-0.384473 0.173633,-0.285254 0.173633,-0.731738 v -7.553028 q 0,-0.396875 -0.186035,-0.719335 -0.173633,-0.334864 -0.496094,-0.558106 -0.235644,-0.148828 -0.682129,-0.248047 -0.446484,-0.111621 -0.818555,-0.136426 v -0.806152 l 4.316016,-0.272851 0.173633,0.173632 v 9.971485 q 0,0.434082 0.16123,0.719336 0.173633,0.285253 0.533301,0.421679 0.272852,0.111621 0.533301,0.186035 0.260449,0.06201 0.58291,0.08682 z M 31.317572,5.4528981 q 0,0.706933 -0.471289,1.240234 -0.458887,0.520899 -1.141016,0.520899 -0.632519,0 -1.103809,-0.496094 -0.458886,-0.508496 -0.458886,-1.153418 0,-0.682129 0.458886,-1.190625 0.47129,-0.508496 1.103809,-0.508496 0.706934,0 1.153418,0.483691 0.458887,0.471289 0.458887,1.103809 z"
         style="fill:#000000;stroke:none;stroke-width:0.778;stroke-dasharray:none"
         id="path5530" /><path
         d="M 47.500148,22.654948 H 43.80425 Q 42.836867,21.253484 41.733059,19.653581 40.62925,18.053679 39.438625,16.540593 l -1.016992,0.954981 v 2.902148 q 0,0.446484 0.16123,0.744141 0.161231,0.285253 0.520899,0.421679 0.297656,0.124024 0.570508,0.186035 0.272851,0.06201 0.632519,0.08682 v 0.818554 h -6.002734 v -0.818554 q 0.285254,-0.02481 0.595312,-0.04961 0.310059,-0.03721 0.520899,-0.09922 0.347265,-0.111621 0.520898,-0.384473 0.173633,-0.285254 0.173633,-0.731738 V 6.3582691 q 0,-0.458887 -0.198438,-0.855762 -0.186035,-0.409277 -0.496093,-0.620117 -0.260449,-0.198437 -0.818555,-0.260449 -0.545703,-0.06201 -0.880566,-0.08682 v -0.79375 L 38.248,3.4561181 38.421633,3.6421531 V 16.577797 q 0.967383,-0.967383 2.083594,-2.071191 1.128613,-1.116211 1.897558,-1.984375 0.09922,-0.111621 0.21084,-0.285254 0.124023,-0.186035 0.124023,-0.297656 0,-0.334864 -0.545703,-0.496094 -0.5333,-0.161231 -1.029394,-0.223242 v -0.79375 h 5.382617 v 0.768945 q -1.041797,0.310059 -1.847949,0.781348 -0.79375,0.458886 -1.21543,0.830957 -0.297656,0.248047 -0.843359,0.806152 -0.545703,0.558105 -1.525489,1.463477 1.016993,1.252636 2.282032,3.001367 1.277441,1.74873 1.860351,2.530078 0.545703,0.731738 0.979785,0.95498 0.434082,0.223242 1.265039,0.272852 z"
         style="fill:#000000;stroke:none;stroke-width:0.778;stroke-dasharray:none"
         id="path5532" /><path
         d="m 54.244544,22.654948 h -5.915918 v -0.818554 q 0.285254,-0.02481 0.58291,-0.04961 0.310059,-0.0248 0.533301,-0.09922 0.347266,-0.111621 0.508496,-0.384473 0.173633,-0.285254 0.173633,-0.731738 v -7.553028 q 0,-0.396875 -0.186035,-0.719335 -0.173633,-0.334862 -0.496094,-0.558104 -0.235645,-0.148828 -0.682129,-0.248047 -0.446484,-0.111621 -0.818555,-0.136426 v -0.806152 l 4.316016,-0.272851 0.173633,0.173632 v 9.971485 q 0,0.434082 0.16123,0.719336 0.173633,0.285253 0.533301,0.421679 0.272852,0.111621 0.533301,0.186035 0.260449,0.06201 0.58291,0.08682 z M 52.681849,5.4528981 q 0,0.706933 -0.471289,1.240234 -0.458887,0.520899 -1.141016,0.520899 -0.63252,0 -1.103809,-0.496094 -0.458886,-0.508496 -0.458886,-1.153418 0,-0.682129 0.458886,-1.190625 0.471289,-0.508496 1.103809,-0.508496 0.706934,0 1.153418,0.483691 0.458887,0.471289 0.458887,1.103809 z"
         style="fill:#000000;stroke:none;stroke-width:0.778;stroke-dasharray:none"
         id="path5534" /><path
         d="m 66.768429,19.777605 q -0.768945,1.463476 -2.058789,2.33164 -1.289844,0.868164 -2.96416,0.868164 -1.475879,0 -2.59209,-0.520898 -1.103808,-0.520898 -1.823144,-1.413867 -0.719336,-0.892969 -1.079004,-2.083594 -0.347266,-1.190625 -0.347266,-2.517676 0,-1.190625 0.372071,-2.33164 0.384472,-1.153418 1.11621,-2.071192 0.706934,-0.880566 1.748731,-1.413867 1.054199,-0.545703 2.356445,-0.545703 1.339453,0 2.294434,0.42168 0.95498,0.421679 1.550293,1.153418 0.570507,0.694531 0.843359,1.637109 0.285254,0.942578 0.285254,2.046387 v 0.818554 h -8.09873 q 0,1.203028 0.223242,2.182813 0.235644,0.979785 0.731738,1.723926 0.483691,0.719336 1.265039,1.141015 0.781348,0.409278 1.860352,0.409278 1.103808,0 1.897558,-0.508497 0.806153,-0.520898 1.550293,-1.860351 z m -2.740918,-4.663281 q 0,-0.694532 -0.124023,-1.488282 -0.111621,-0.79375 -0.37207,-1.32705 -0.285254,-0.570508 -0.781348,-0.930176 -0.496094,-0.359668 -1.277442,-0.359668 -1.302246,0 -2.17041,1.091406 -0.855761,1.079004 -0.930175,3.01377 z"
         style="fill:url(#linearGradient6815);stroke:none;stroke-width:0.778"
         id="path5536" /><path
         d="m 81.735576,22.431706 -4.266406,0.272852 -0.186035,-0.173633 v -1.141016 l -0.09922,-0.0248 q -0.644922,0.719336 -1.599902,1.178222 -0.942578,0.458887 -1.947168,0.458887 -1.041797,0 -2.021582,-0.458887 -0.967383,-0.471289 -1.686719,-1.314648 -0.731738,-0.855762 -1.16582,-2.058789 -0.42168,-1.203027 -0.42168,-2.654102 0,-1.32705 0.458887,-2.517675 0.458887,-1.190625 1.265039,-2.083594 0.756543,-0.830957 1.847949,-1.327051 1.103809,-0.496094 2.244824,-0.496094 0.855762,0 1.674317,0.223243 0.830957,0.210839 1.426269,0.545703 V 6.6063201 q 0,-0.520899 -0.173633,-0.942578 -0.173631,-0.434086 -0.48369,-0.657328 -0.347266,-0.235645 -0.942578,-0.334864 -0.58291,-0.111621 -1.265039,-0.16123 v -0.768946 l 4.998144,-0.285253 0.186035,0.186035 V 20.137273 q 0,0.434082 0.161231,0.74414 0.173633,0.297657 0.496094,0.508496 0.235644,0.148829 0.682129,0.186036 0.446484,0.03721 0.818554,0.04961 z M 77.25833,20.286101 v -7.156152 q -0.09922,-0.322461 -0.322461,-0.694532 -0.223242,-0.37207 -0.558105,-0.682129 -0.359668,-0.310058 -0.84336,-0.508496 -0.483691,-0.210839 -1.128613,-0.210839 -0.74414,0 -1.37666,0.384472 -0.620117,0.384473 -1.103809,1.103809 -0.458886,0.694531 -0.731738,1.773535 -0.260449,1.066601 -0.260449,2.368847 0,1.041797 0.198437,1.897559 0.198438,0.843359 0.669727,1.575098 0.434082,0.694531 1.103809,1.116211 0.682128,0.421679 1.612304,0.421679 0.992188,0 1.63711,-0.434082 0.657324,-0.434082 1.103808,-0.95498 z"
         style="fill:url(#linearGradient6817);stroke:none;stroke-width:0.778"
         id="path5538" /><path
         d="m 89.025679,22.654948 h -5.915917 v -0.818554 c 0.190169,-0.01654 0.384472,-0.03308 0.58291,-0.04961 0.206705,-0.01653 0.384472,-0.04961 0.533301,-0.09922 0.23151,-0.07441 0.401009,-0.202572 0.508496,-0.384473 0.115755,-0.190169 0.173632,-0.434082 0.173632,-0.731738 v -7.553028 c 0,-0.264583 -0.06201,-0.504362 -0.186035,-0.719335 -0.115755,-0.223243 -0.28112,-0.409278 -0.496093,-0.558106 -0.157097,-0.09922 -0.384473,-0.181901 -0.682129,-0.248047 -0.297657,-0.07441 -0.570508,-0.119889 -0.818555,-0.136426 v -0.806152 l 4.316016,-0.272851 0.173632,0.173632 v 9.971485 c 0,0.289388 0.05374,0.529167 0.161231,0.719336 0.115755,0.190169 0.293522,0.330728 0.533301,0.421679 0.181901,0.07441 0.359667,0.136426 0.5333,0.186035 0.173633,0.04134 0.367937,0.07028 0.58291,0.08682 z"
         style="fill:url(#linearGradient6819);stroke:none;stroke-width:0.778"
         id="path5540"
         sodipodi:nodetypes="ccccccsscccccccsccccc" /><path
         d="m 101.54957,19.777605 q -0.76895,1.463476 -2.058799,2.33164 -1.289843,0.868164 -2.964163,0.868164 -1.475875,0 -2.592086,-0.520898 -1.103809,-0.520898 -1.823145,-1.413867 -0.719335,-0.892969 -1.079003,-2.083594 -0.347266,-1.190625 -0.347266,-2.517676 0,-1.190625 0.37207,-2.33164 0.384473,-1.153418 1.116211,-2.071192 0.706934,-0.880566 1.748731,-1.413867 1.054199,-0.545703 2.356445,-0.545703 1.339453,0 2.294433,0.42168 0.954983,0.421679 1.550292,1.153418 0.57051,0.694531 0.84336,1.637109 0.28527,0.942578 0.28527,2.046387 v 0.818554 h -8.098746 q 0,1.203028 0.223243,2.182813 0.235644,0.979785 0.731738,1.723926 0.483691,0.719336 1.265039,1.141015 0.781347,0.409278 1.860354,0.409278 1.10381,0 1.897563,-0.508497 0.80615,-0.520898 1.550289,-1.860351 z m -2.740929,-4.663281 q 0,-0.694532 -0.12402,-1.488282 -0.111623,-0.79375 -0.372073,-1.32705 -0.28525,-0.570508 -0.78135,-0.930176 -0.49609,-0.359668 -1.277438,-0.359668 -1.302246,0 -2.17041,1.091406 -0.855762,1.079004 -0.930176,3.01377 z"
         style="fill:url(#linearGradient6821);stroke:none;stroke-width:0.778"
         id="path5542" /><path
         d="m 114.70598,22.431706 q -0.58291,0.21084 -1.02939,0.334864 -0.43408,0.136425 -0.99219,0.136425 -0.96738,0 -1.55029,-0.446484 -0.57051,-0.458887 -0.73174,-1.327051 h -0.0744 q -0.80615,0.892969 -1.73632,1.364258 -0.91778,0.471289 -2.22002,0.471289 -1.37666,0 -2.26963,-0.843359 -0.88057,-0.84336 -0.88057,-2.207617 0,-0.706934 0.19844,-1.26504 0.19844,-0.558105 0.59531,-1.004589 0.31006,-0.372071 0.81856,-0.657325 0.50849,-0.297656 0.95498,-0.471289 0.5581,-0.210839 2.25722,-0.781347 1.71153,-0.570508 2.30684,-0.892969 V 13.61364 q 0,-0.16123 -0.0744,-0.620117 -0.062,-0.458887 -0.28525,-0.868164 -0.24805,-0.458887 -0.70693,-0.79375 -0.44649,-0.347266 -1.27744,-0.347266 -0.57051,0 -1.06661,0.198438 -0.48369,0.186035 -0.68212,0.396875 0,0.248047 0.11162,0.731738 0.12402,0.483691 0.12402,0.892969 0,0.434082 -0.39687,0.79375 -0.38448,0.359668 -1.07901,0.359668 -0.62012,0 -0.91777,-0.434082 -0.28526,-0.446485 -0.28526,-0.992188 0,-0.570508 0.39688,-1.091406 0.40928,-0.520899 1.0542,-0.930176 0.5581,-0.347266 1.35185,-0.58291 0.79375,-0.248047 1.5503,-0.248047 1.04179,0 1.81074,0.148828 0.78135,0.136426 1.41387,0.607715 0.63252,0.458887 0.95498,1.252637 0.33486,0.781347 0.33486,2.021582 0,1.773535 -0.0372,3.150195 -0.0372,1.364258 -0.0372,2.988965 0,0.483691 0.16123,0.768945 0.17363,0.285254 0.52089,0.483691 0.18604,0.111622 0.58291,0.124024 0.40928,0.0124 0.83096,0.0124 z m -4.32842,-6.548437 q -1.0542,0.310058 -1.84795,0.607715 -0.79375,0.297656 -1.47587,0.74414 -0.62012,0.42168 -0.97979,1.00459 -0.35967,0.570508 -0.35967,1.364258 0,1.029394 0.5333,1.513086 0.54571,0.483691 1.37666,0.483691 0.88057,0 1.5503,-0.421679 0.66972,-0.434082 1.12861,-1.016993 z"
         style="fill:url(#linearGradient5547);fill-opacity:1;stroke:none"
         id="path5544" /><path
         id="rect4594"
         style="display:inline;fill:url(#linearGradient5424);fill-opacity:1;stroke:none;stroke-width:0.0487343;stroke-linecap:round;stroke-linejoin:round;paint-order:markers fill stroke"
         d="m 84.761398,3.6479241 v 0.148677 h -0.344941 v 0.16059 h -0.333091 v 0.178425 h -0.136798 v 0.142753 h -0.166514 v 0.190339 h -0.142751 v 0.309266 h -0.172466 v 0.315222 H 83.29233 v 0.327136 h -0.142719 v 0.505528 h 0.142719 v 0.469856 h 0.172507 v 0.297386 h 0.172466 v 0.339016 h 0.166545 v 0.154665 h 0.14272 v 0.178425 h 0.136798 v 0.136798 h 0.333091 v 0.178425 h 0.344941 v 0.160589 h 1.272799 v -0.160589 h 0.327138 v -0.178425 h 0.321178 v -0.136798 h 0.172474 v -0.178425 h 0.148672 v -0.154665 h 0.160593 v -0.339016 h 0.160585 v -0.297386 h 0.166546 v -1.30252 h -0.166546 v -0.315222 h -0.152393 v 0.13097 h -0.14719 v -0.142979 h 0.138998 v -0.297257 h -0.14868 v -0.190339 h -0.160585 v -0.142753 h -0.172474 v -0.178425 h -0.321178 v -0.16059 h -0.327138 v -0.148677 z m 2.402854,1.118041 v 0.01201 h 0.0082 v -0.01201 z M 85.10041,3.8025571 h 0.47581 v 0.136765 h 0.124759 v -0.126179 h 0.172435 v 0.14722 h -0.134558 v 0.155605 h 0.138769 v -0.155605 h 0.164022 v 0.172404 h -0.15561 v 0.151429 H 85.558 v -0.154504 h -0.320792 v 0.166514 h -0.0063 v 0.142753 h 0.18438 v 0.169071 h 0.146543 v 0.176612 h -0.146543 v 0.124173 h -0.154665 v 0.191243 h 0.46102 v -0.168196 h 0.176646 v -0.168228 h 0.164014 v -0.155604 h 0.159812 v 0.155604 h 0.344846 v 0.328042 h -0.597194 v 0.0084 h 0.07992 v 0.151429 h -0.664511 v 0.159812 h -0.14719 v 0.18503 h -0.155799 v 0.618242 h 0.164219 v 0.28596 h 0.172435 v 0.185061 h 0.142981 v 0.185061 h 0.161909 v -0.151428 h 0.149294 v 0.151428 h 0.189268 v -0.134595 h 0.142988 v -0.182966 h 0.147182 v 0.182957 h 0.143019 v 0.134595 h 0.155602 v -0.151428 h 0.172403 v 0.151428 h -0.147189 v 0.159813 h -0.155602 v 0.134564 h 0.130388 v 0.159813 h -0.130388 v 0.02104 h -0.176645 v 0.14298 h -0.273369 v 0.172438 h -1.000918 v -0.31543 h -0.168233 v -0.315416 h -0.146448 v 0.0016 h -0.154625 v -0.0016 h -0.02751 v 0.138577 h -0.147221 v -0.138577 h -0.01206 v -0.134597 h -0.193449 v -0.18503 H 83.92159 v -0.159811 h -0.151391 v -0.321826 h -0.157093 v -0.654237 h 0.649152 v -0.315223 h -0.149547 v -0.339015 h -0.140653 v 0.01113 h -0.206069 v -0.151428 h 0.155601 v -0.164016 h -0.130349 v -0.142981 h 0.159805 v 0.134597 h 0.15561 v -0.151429 h 0.1514 v 0.160784 h 0.152039 v -0.160786 h -0.135206 v -0.164021 h 0.151392 v -0.155605 h 0.159812 v -0.176612 h 0.159813 v 0.169329 h 0.0091 v 0.01188 h 0.178428 v -0.166547 h 0.166513 z m -0.673719,0.490023 v 0.146379 h 0.15628 v -0.146379 z m -7.49e-4,2.737886 h 0.147221 v -0.0044 h -0.147221 z m 1.926744,-0.294408 h -0.147182 v 0.02525 h 0.147182 z m -0.479437,0.134596 h -0.149106 v 0.01049 h 0.149295 z m -1.114477,-3.057511 h 0.151393 v 0.155636 h -0.151393 z m -0.647669,0.336457 h 0.159812 v 0.147188 h -0.159812 z m -0.155602,0.155605 h 0.1514 v 0.130387 h -0.1514 z m 2.742449,0.15146 h 0.14719 v 0.143013 h -0.14719 z m -1.114871,0.0042 H 85.7429 v 0.155605 h -0.159821 z m 1.263551,0.162402 h 0.147221 v 0.14298 H 86.84663 Z m -0.0063,0.303344 h 0.147181 v 0.142979 H 86.84033 Z m 0.315769,0.353484 h 0.147222 v 0.142979 h -0.147213 z m -0.297927,0.306705 h 0.147191 v 0.143011 h -0.147207 z m 0.170496,0.156575 h 0.14719 v 0.14298 h -0.14719 z m -0.18218,0.155863 h 0.147191 v 0.14298 h -0.147191 z m -0.317519,0.0063 h 0.147189 v 0.14298 h -0.147189 z m -0.172443,0.168197 h 0.147189 v 0.176645 h -0.145084 v 0.138805 h -0.14719 v -0.143013 h 0.145085 z m 0.808192,0.147026 h 0.147221 v 0.14298 h -0.147221 z m -0.637854,0.01699 h 0.147181 v 0.143012 h -0.147181 z m 0.323834,0.0022 h 0.14719 v 0.143012 h -0.14719 z m -0.494172,0.151396 h 0.147189 v 0.151428 h 0.145117 v 0.180822 H 86.50161 v -0.172402 h -0.145084 z m 0.307003,0.0063 h 0.147221 v 0.143013 h -0.147221 z m -0.622417,0.01053 h 0.147189 v 0.143012 h -0.147205 z m -0.159813,0.149291 h 0.14719 v 0.143013 h -0.14719 z m 0.975707,0.0042 h 0.14719 v 0.143013 h -0.14719 z m -2.91021,0.312762 h 0.147191 v 0.143011 h -0.147191 z m 2.901781,0.01518 h 0.147183 v 0.143011 h -0.147183 z m -2.726334,0.142461 h 0.147189 v 0.14298 h -0.147189 z m 2.560207,0.0089 h 0.147576 v 0.143013 h -0.14719 z m -2.387732,0.133786 h 0.147181 v 0.143012 h -0.147181 z m 0.273588,0 h 0.147191 v 0.143012 h -0.147191 z m 0.202222,0.172502 h 0.147189 v 0.14298 h -0.147189 z m -0.339012,0.01188 h 0.147182 v 0.142979 h -0.147182 z m 0.46985,0.172469 h 0.147221 v 0.143012 h -0.147221 z" /></g></g><g
     inkscape:groupmode="layer"
     id="layer2"
     inkscape:label="Layer 2" /></svg>
